<?xml version="1.0" encoding="utf-8" standalone="no"?>
<!DOCTYPE svg PUBLIC "-//W3C//DTD SVG 1.1//EN"
  "http://www.w3.org/Graphics/SVG/1.1/DTD/svg11.dtd">
<svg xmlns:xlink="http://www.w3.org/1999/xlink" width="288pt" height="288pt" viewBox="0 0 288 288" xmlns="http://www.w3.org/2000/svg" version="1.1">
 <metadata>
  <rdf:RDF xmlns:dc="http://purl.org/dc/elements/1.1/" xmlns:cc="http://creativecommons.org/ns#" xmlns:rdf="http://www.w3.org/1999/02/22-rdf-syntax-ns#">
   <cc:Work>
    <dc:type rdf:resource="http://purl.org/dc/dcmitype/StillImage"/>
    <dc:date>2024-01-22T11:16:13.555954</dc:date>
    <dc:format>image/svg+xml</dc:format>
    <dc:creator>
     <cc:Agent>
      <dc:title>Matplotlib v3.7.0, https://matplotlib.org/</dc:title>
     </cc:Agent>
    </dc:creator>
   </cc:Work>
  </rdf:RDF>
 </metadata>
 <defs>
  <style type="text/css">*{stroke-linejoin: round; stroke-linecap: butt}</style>
 </defs>
 <g id="figure_1">
  <g id="patch_1">
   <path d="M 0 288 
L 288 288 
L 288 0 
L 0 0 
z
" style="fill: #ffffff"/>
  </g>
  <g id="axes_1">
   <g id="PathCollection_1">
    <path d="M 150.660666 103.664788 
L 153.324932 104.823999 
L 154.861212 102.70387 
L 153.324932 100.947286 
L 150.660666 101.919756 
L 150.118031 102.70387 
z
" clip-path="url(#p5e9c256328)" style="fill: #07051b"/>
   </g>
   <g id="PathCollection_2">
    <path d="M 150.660666 159.935584 
L 152.317945 158.653465 
L 150.660666 156.85195 
L 149.360302 158.653465 
z
" clip-path="url(#p5e9c256328)" style="fill: #2b0b57"/>
    <path d="M 150.660666 107.172109 
L 153.324932 107.501579 
L 155.989199 105.923458 
L 156.533088 105.368137 
L 157.486992 102.70387 
L 156.570242 100.039604 
L 155.989199 99.348173 
L 153.324932 97.831759 
L 150.660666 98.140975 
L 148.566465 100.039604 
L 147.9964 101.770071 
L 147.72617 102.70387 
L 147.9964 103.474146 
L 148.557859 105.368137 
z
M 150.118031 102.70387 
L 150.660666 101.919756 
L 153.324932 100.947286 
L 154.861212 102.70387 
L 153.324932 104.823999 
L 150.660666 103.664788 
z
" clip-path="url(#p5e9c256328)" style="fill: #2b0b57"/>
   </g>
   <g id="PathCollection_3">
    <path d="M 201.281728 210.605278 
L 203.945995 209.586792 
L 204.192356 209.274527 
L 204.702456 206.610261 
L 203.945995 205.484144 
L 201.281728 204.614474 
L 199.064311 206.610261 
L 199.443101 209.274527 
z
" clip-path="url(#p5e9c256328)" style="fill: #57106e"/>
    <path d="M 150.660666 161.869689 
L 151.986069 161.317732 
L 153.324932 160.760302 
L 154.642562 158.653465 
L 153.786699 155.989199 
L 153.324932 155.497098 
L 150.660666 154.464044 
L 148.366081 155.989199 
L 147.9964 157.018347 
L 147.396484 158.653465 
L 147.9964 159.827497 
L 149.591123 161.317732 
z
M 149.360302 158.653465 
L 150.660666 156.85195 
L 152.317945 158.653465 
L 150.660666 159.935584 
z
" clip-path="url(#p5e9c256328)" style="fill: #57106e"/>
    <path d="M 150.660666 111.532692 
L 153.324932 111.886542 
L 155.989199 111.534432 
L 158.097737 110.69667 
L 158.653465 110.432029 
L 161.317732 108.335295 
L 161.635375 108.032403 
L 163.41065 105.368137 
L 163.981998 103.441646 
L 164.250791 102.70387 
L 164.478655 100.039604 
L 164.025464 97.375338 
L 163.981998 97.260177 
L 162.910049 94.711071 
L 161.317732 92.639527 
L 160.657039 92.046805 
L 158.653465 90.580387 
L 155.989199 89.611938 
L 153.494406 89.382538 
L 153.324932 89.364383 
L 153.214347 89.382538 
L 150.660666 89.71651 
L 147.9964 90.801765 
L 146.401245 92.046805 
L 145.332133 92.97201 
L 144.023436 94.711071 
L 142.790414 97.375338 
L 142.667867 97.988515 
L 142.269473 100.039604 
L 142.432279 102.70387 
L 142.667867 103.371139 
L 143.233896 105.368137 
L 145.013003 108.032403 
L 145.332133 108.345673 
L 147.9964 110.427922 
L 148.639958 110.69667 
z
M 148.557859 105.368137 
L 147.9964 103.474146 
L 147.72617 102.70387 
L 147.9964 101.770071 
L 148.566465 100.039604 
L 150.660666 98.140975 
L 153.324932 97.831759 
L 155.989199 99.348173 
L 156.570242 100.039604 
L 157.486992 102.70387 
L 156.533088 105.368137 
L 155.989199 105.923458 
L 153.324932 107.501579 
L 150.660666 107.172109 
z
" clip-path="url(#p5e9c256328)" style="fill: #57106e"/>
    <path d="M 14.783078 20.135189 
L 14.808549 20.111611 
L 17.447345 17.496357 
L 17.496159 17.447345 
L 19.945038 14.783078 
L 20.111611 14.582946 
L 22.189143 12.118812 
L 20.111611 12.118812 
L 17.447345 12.118812 
L 14.783078 12.118812 
L 12.118812 12.118812 
L 12.118812 14.783078 
L 12.118812 17.447345 
L 12.118812 20.111611 
L 12.118812 22.536402 
z
" clip-path="url(#p5e9c256328)" style="fill: #57106e"/>
   </g>
   <g id="PathCollection_4">
    <path d="M 195.953195 213.569623 
L 198.617462 214.37238 
L 201.281728 214.187451 
L 203.945995 212.878824 
L 204.705222 211.938794 
L 206.478665 209.274527 
L 206.610261 208.347605 
L 206.957813 206.610261 
L 206.610261 204.908308 
L 206.329013 203.945995 
L 204.175711 201.281728 
L 203.945995 201.042154 
L 201.281728 199.92081 
L 198.617462 200.054222 
L 195.953195 201.261823 
L 195.923562 201.281728 
L 193.391463 203.945995 
L 193.288929 204.249589 
L 192.364786 206.610261 
L 192.497287 209.274527 
L 193.288929 210.806743 
L 193.879905 211.938794 
z
M 199.443101 209.274527 
L 199.064311 206.610261 
L 201.281728 204.614474 
L 203.945995 205.484144 
L 204.702456 206.610261 
L 204.192356 209.274527 
L 203.945995 209.586792 
L 201.281728 210.605278 
z
" clip-path="url(#p5e9c256328)" style="fill: #7f1e6c"/>
    <path d="M 145.332133 166.723133 
L 147.9964 167.922213 
L 150.660666 167.924187 
L 153.324932 166.774062 
L 153.460334 166.646265 
L 155.989199 164.301107 
L 156.182152 163.981998 
L 157.50234 161.317732 
L 157.977973 158.653465 
L 157.658613 155.989199 
L 156.247227 153.324932 
L 155.989199 153.003556 
L 153.324932 151.187616 
L 150.660666 150.924994 
L 147.9964 151.627361 
L 145.50578 153.324932 
L 145.332133 153.504945 
L 143.288087 155.989199 
L 142.667867 157.906602 
L 142.333172 158.653465 
L 142.179214 161.317732 
L 142.667867 163.047868 
L 142.972944 163.981998 
L 145.239758 166.646265 
z
M 149.591123 161.317732 
L 147.9964 159.827497 
L 147.396484 158.653465 
L 147.9964 157.018347 
L 148.366081 155.989199 
L 150.660666 154.464044 
L 153.324932 155.497098 
L 153.786699 155.989199 
L 154.642562 158.653465 
L 153.324932 160.760302 
L 151.986069 161.317732 
L 150.660666 161.869689 
z
" clip-path="url(#p5e9c256328)" style="fill: #7f1e6c"/>
    <path d="M 153.324932 119.37471 
L 155.989199 119.792505 
L 158.653465 119.910221 
L 161.317732 119.714185 
L 163.981998 119.193855 
L 165.653148 118.689469 
L 166.646265 118.362213 
L 169.310531 117.224305 
L 171.582548 116.025203 
L 171.974797 115.782146 
L 174.639064 114.020912 
L 175.593309 113.360936 
L 177.30333 111.929971 
L 178.789702 110.69667 
L 179.967597 109.492781 
L 181.478548 108.032403 
L 182.631863 106.651268 
L 183.800174 105.368137 
L 185.29613 103.339413 
L 185.816897 102.70387 
L 187.605455 100.039604 
L 187.960396 99.390784 
L 189.215383 97.375338 
L 190.589604 94.711071 
L 190.624662 94.627863 
L 191.873987 92.046805 
L 192.961809 89.382538 
L 193.288929 88.413407 
L 193.946521 86.718272 
L 194.808498 84.054005 
L 195.541063 81.389739 
L 195.953195 79.587907 
L 196.178762 78.725473 
L 196.737931 76.061206 
L 197.200836 73.39694 
L 197.57915 70.732673 
L 197.882688 68.068407 
L 198.12018 65.40414 
L 198.299915 62.739874 
L 198.430292 60.075608 
L 198.520302 57.411341 
L 198.57995 54.747075 
L 198.617462 52.273373 
L 198.620626 52.082808 
L 198.655284 49.418542 
L 198.69848 46.754275 
L 198.766794 44.090009 
L 198.878385 41.425743 
L 199.052789 38.761476 
L 199.310529 36.09721 
L 199.672539 33.432943 
L 200.159401 30.768677 
L 200.790429 28.10441 
L 201.281728 26.41518 
L 201.574194 25.440144 
L 202.511929 22.775878 
L 203.625972 20.111611 
L 203.945995 19.430821 
L 204.897046 17.447345 
L 206.336072 14.783078 
L 206.610261 14.315933 
L 207.920629 12.118812 
L 206.610261 12.118812 
L 203.945995 12.118812 
L 201.281728 12.118812 
L 198.617462 12.118812 
L 195.953195 12.118812 
L 193.288929 12.118812 
L 190.624662 12.118812 
L 187.960396 12.118812 
L 185.29613 12.118812 
L 182.631863 12.118812 
L 179.967597 12.118812 
L 177.30333 12.118812 
L 174.639064 12.118812 
L 171.974797 12.118812 
L 169.310531 12.118812 
L 166.646265 12.118812 
L 163.981998 12.118812 
L 161.317732 12.118812 
L 158.653465 12.118812 
L 155.989199 12.118812 
L 153.324932 12.118812 
L 150.660666 12.118812 
L 147.9964 12.118812 
L 145.332133 12.118812 
L 142.667867 12.118812 
L 140.0036 12.118812 
L 137.339334 12.118812 
L 134.675068 12.118812 
L 132.010801 12.118812 
L 129.346535 12.118812 
L 126.682268 12.118812 
L 124.920436 12.118812 
L 126.682268 12.894873 
L 129.346535 14.244168 
L 130.310959 14.783078 
L 132.010801 15.866774 
L 134.213351 17.447345 
L 134.675068 17.838058 
L 137.139488 20.111611 
L 137.339334 20.339572 
L 139.351814 22.775878 
L 140.0036 23.827796 
L 140.968207 25.440144 
L 142.075864 28.10441 
L 142.667867 30.449017 
L 142.748388 30.768677 
L 143.090783 33.432943 
L 143.108318 36.09721 
L 142.850643 38.761476 
L 142.667867 39.693406 
L 142.387376 41.425743 
L 141.757765 44.090009 
L 140.965945 46.754275 
L 140.03181 49.418542 
L 140.0036 49.484413 
L 139.073311 52.082808 
L 138.026459 54.747075 
L 137.339334 56.332131 
L 136.943535 57.411341 
L 135.871082 60.075608 
L 134.773419 62.739874 
L 134.675068 62.960001 
L 133.738756 65.40414 
L 132.727804 68.068407 
L 132.010801 69.992593 
L 131.769402 70.732673 
L 130.898018 73.39694 
L 130.104353 76.061206 
L 129.411725 78.725473 
L 129.346535 79.004661 
L 128.83498 81.389739 
L 128.385557 84.054005 
L 128.08215 86.718272 
L 127.942682 89.382538 
L 127.98638 92.046805 
L 128.237969 94.711071 
L 128.7347 97.375338 
L 129.346535 99.399676 
L 129.512367 100.039604 
L 130.548986 102.70387 
L 132.010801 105.28644 
L 132.051284 105.368137 
L 133.923819 108.032403 
L 134.675068 108.804389 
L 136.420266 110.69667 
L 137.339334 111.443268 
L 139.728429 113.360936 
L 140.0036 113.537954 
L 142.667867 115.221665 
L 144.141893 116.025203 
L 145.332133 116.626427 
L 147.9964 117.787505 
L 150.660666 118.674053 
L 150.72927 118.689469 
z
M 148.639958 110.69667 
L 147.9964 110.427922 
L 145.332133 108.345673 
L 145.013003 108.032403 
L 143.233896 105.368137 
L 142.667867 103.371139 
L 142.432279 102.70387 
L 142.269473 100.039604 
L 142.667867 97.988515 
L 142.790414 97.375338 
L 144.023436 94.711071 
L 145.332133 92.97201 
L 146.401245 92.046805 
L 147.9964 90.801765 
L 150.660666 89.71651 
L 153.214347 89.382538 
L 153.324932 89.364383 
L 153.494406 89.382538 
L 155.989199 89.611938 
L 158.653465 90.580387 
L 160.657039 92.046805 
L 161.317732 92.639527 
L 162.910049 94.711071 
L 163.981998 97.260177 
L 164.025464 97.375338 
L 164.478655 100.039604 
L 164.250791 102.70387 
L 163.981998 103.441646 
L 163.41065 105.368137 
L 161.635375 108.032403 
L 161.317732 108.335295 
L 158.653465 110.432029 
L 158.097737 110.69667 
L 155.989199 111.534432 
L 153.324932 111.886542 
L 150.660666 111.532692 
z
" clip-path="url(#p5e9c256328)" style="fill: #7f1e6c"/>
    <path d="M 14.35808 46.754275 
L 14.783078 46.399729 
L 17.447345 44.15067 
L 17.519015 44.090009 
L 20.111611 41.962343 
L 20.772658 41.425743 
L 22.775878 39.828888 
L 24.143947 38.761476 
L 25.440144 37.755107 
L 27.642842 36.09721 
L 28.10441 35.746902 
L 30.768677 33.800104 
L 31.297384 33.432943 
L 33.432943 31.91187 
L 35.134809 30.768677 
L 36.09721 30.097746 
L 38.761476 28.354269 
L 39.172427 28.10441 
L 41.425743 26.661317 
L 43.481639 25.440144 
L 44.090009 25.056265 
L 46.754275 23.505452 
L 48.118562 22.775878 
L 49.418542 22.029622 
L 52.082808 20.627012 
L 53.15735 20.111611 
L 54.747075 19.286628 
L 57.411341 18.024391 
L 58.753513 17.447345 
L 60.075608 16.82897 
L 62.739874 15.701031 
L 65.118242 14.783078 
L 65.40414 14.662606 
L 68.068407 13.665881 
L 70.732673 12.761065 
L 72.839484 12.118812 
L 70.732673 12.118812 
L 68.068407 12.118812 
L 65.40414 12.118812 
L 62.739874 12.118812 
L 60.075608 12.118812 
L 57.411341 12.118812 
L 54.747075 12.118812 
L 52.082808 12.118812 
L 49.418542 12.118812 
L 46.754275 12.118812 
L 44.090009 12.118812 
L 41.425743 12.118812 
L 38.761476 12.118812 
L 36.09721 12.118812 
L 33.432943 12.118812 
L 30.768677 12.118812 
L 28.10441 12.118812 
L 25.440144 12.118812 
L 22.775878 12.118812 
L 22.189143 12.118812 
L 20.111611 14.582946 
L 19.945038 14.783078 
L 17.496159 17.447345 
L 17.447345 17.496357 
L 14.808549 20.111611 
L 14.783078 20.135189 
L 12.118812 22.536402 
L 12.118812 22.775878 
L 12.118812 25.440144 
L 12.118812 28.10441 
L 12.118812 30.768677 
L 12.118812 33.432943 
L 12.118812 36.09721 
L 12.118812 38.761476 
L 12.118812 41.425743 
L 12.118812 44.090009 
L 12.118812 46.754275 
L 12.118812 48.704836 
z
" clip-path="url(#p5e9c256328)" style="fill: #7f1e6c"/>
   </g>
   <g id="PathCollection_5">
    <path d="M 14.783078 275.881188 
L 17.447345 275.881188 
L 20.111611 275.881188 
L 22.775878 275.881188 
L 25.440144 275.881188 
L 28.10441 275.881188 
L 30.768677 275.881188 
L 33.432943 275.881188 
L 36.09721 275.881188 
L 38.761476 275.881188 
L 41.425743 275.881188 
L 44.090009 275.881188 
L 46.754275 275.881188 
L 49.418542 275.881188 
L 52.082808 275.881188 
L 54.747075 275.881188 
L 57.411341 275.881188 
L 60.075608 275.881188 
L 62.739874 275.881188 
L 65.40414 275.881188 
L 68.068407 275.881188 
L 70.732673 275.881188 
L 73.39694 275.881188 
L 76.061206 275.881188 
L 78.725473 275.881188 
L 81.389739 275.881188 
L 84.054005 275.881188 
L 86.718272 275.881188 
L 89.382538 275.881188 
L 92.046805 275.881188 
L 94.711071 275.881188 
L 97.375338 275.881188 
L 100.039604 275.881188 
L 102.70387 275.881188 
L 105.368137 275.881188 
L 108.032403 275.881188 
L 110.69667 275.881188 
L 113.360936 275.881188 
L 116.025203 275.881188 
L 118.689469 275.881188 
L 121.353735 275.881188 
L 124.018002 275.881188 
L 126.682268 275.881188 
L 129.346535 275.881188 
L 132.010801 275.881188 
L 134.675068 275.881188 
L 137.339334 275.881188 
L 140.0036 275.881188 
L 142.667867 275.881188 
L 145.332133 275.881188 
L 147.9964 275.881188 
L 150.660666 275.881188 
L 153.324932 275.881188 
L 155.989199 275.881188 
L 158.653465 275.881188 
L 161.317732 275.881188 
L 163.981998 275.881188 
L 166.646265 275.881188 
L 169.310531 275.881188 
L 171.974797 275.881188 
L 174.639064 275.881188 
L 177.30333 275.881188 
L 179.967597 275.881188 
L 182.631863 275.881188 
L 185.29613 275.881188 
L 187.960396 275.881188 
L 190.624662 275.881188 
L 193.288929 275.881188 
L 195.953195 275.881188 
L 198.617462 275.881188 
L 201.281728 275.881188 
L 203.945995 275.881188 
L 206.610261 275.881188 
L 209.274527 275.881188 
L 211.938794 275.881188 
L 214.60306 275.881188 
L 217.267327 275.881188 
L 219.931593 275.881188 
L 222.59586 275.881188 
L 225.260126 275.881188 
L 227.924392 275.881188 
L 230.588659 275.881188 
L 233.252925 275.881188 
L 235.917192 275.881188 
L 238.581458 275.881188 
L 241.245725 275.881188 
L 243.909991 275.881188 
L 246.574257 275.881188 
L 249.238524 275.881188 
L 251.90279 275.881188 
L 254.567057 275.881188 
L 257.231323 275.881188 
L 259.89559 275.881188 
L 262.559856 275.881188 
L 265.224122 275.881188 
L 267.888389 275.881188 
L 270.552655 275.881188 
L 273.216922 275.881188 
L 275.881188 275.881188 
L 275.881188 273.216922 
L 275.881188 270.552655 
L 275.881188 267.888389 
L 275.881188 265.224122 
L 275.881188 262.559856 
L 275.881188 259.89559 
L 275.881188 257.231323 
L 275.881188 254.567057 
L 275.881188 251.90279 
L 275.881188 249.238524 
L 275.881188 246.574257 
L 275.881188 243.909991 
L 275.881188 241.245725 
L 275.881188 238.581458 
L 275.881188 235.917192 
L 275.881188 233.252925 
L 275.881188 230.588659 
L 275.881188 227.924392 
L 275.881188 225.260126 
L 275.881188 222.59586 
L 275.881188 219.931593 
L 275.881188 217.267327 
L 275.881188 214.60306 
L 275.881188 211.938794 
L 275.881188 209.274527 
L 275.881188 206.610261 
L 275.881188 203.945995 
L 275.881188 201.281728 
L 275.881188 198.617462 
L 275.881188 195.953195 
L 275.881188 193.288929 
L 275.881188 190.624662 
L 275.881188 187.960396 
L 275.881188 185.29613 
L 275.881188 182.631863 
L 275.881188 179.967597 
L 275.881188 177.30333 
L 275.881188 174.639064 
L 275.881188 171.974797 
L 275.881188 169.310531 
L 275.881188 166.646265 
L 275.881188 163.981998 
L 275.881188 161.317732 
L 275.881188 158.653465 
L 275.881188 155.989199 
L 275.881188 153.324932 
L 275.881188 150.660666 
L 275.881188 147.9964 
L 275.881188 145.332133 
L 275.881188 142.667867 
L 275.881188 140.0036 
L 275.881188 137.339334 
L 275.881188 134.675068 
L 275.881188 132.010801 
L 275.881188 129.346535 
L 275.881188 126.682268 
L 275.881188 124.018002 
L 275.881188 121.353735 
L 275.881188 118.689469 
L 275.881188 116.025203 
L 275.881188 113.360936 
L 275.881188 110.69667 
L 275.881188 108.032403 
L 275.881188 105.368137 
L 275.881188 102.70387 
L 275.881188 100.039604 
L 275.881188 97.375338 
L 275.881188 94.711071 
L 275.881188 92.046805 
L 275.881188 89.382538 
L 275.881188 86.718272 
L 275.881188 84.054005 
L 275.881188 81.389739 
L 275.881188 78.725473 
L 275.881188 76.061206 
L 275.881188 73.39694 
L 275.881188 70.732673 
L 275.881188 68.068407 
L 275.881188 65.40414 
L 275.881188 62.739874 
L 275.881188 60.075608 
L 275.881188 57.411341 
L 275.881188 54.747075 
L 275.881188 52.082808 
L 275.881188 49.418542 
L 275.881188 46.754275 
L 275.881188 44.090009 
L 275.881188 41.425743 
L 275.881188 38.761476 
L 275.881188 36.09721 
L 275.881188 33.432943 
L 275.881188 30.768677 
L 275.881188 28.10441 
L 275.881188 25.440144 
L 275.881188 22.775878 
L 275.881188 20.111611 
L 275.881188 17.447345 
L 275.881188 14.783078 
L 275.881188 12.118812 
L 273.216922 12.118812 
L 270.552655 12.118812 
L 267.888389 12.118812 
L 265.224122 12.118812 
L 262.559856 12.118812 
L 259.89559 12.118812 
L 257.231323 12.118812 
L 254.567057 12.118812 
L 251.90279 12.118812 
L 249.238524 12.118812 
L 246.574257 12.118812 
L 243.909991 12.118812 
L 241.245725 12.118812 
L 238.581458 12.118812 
L 235.917192 12.118812 
L 233.252925 12.118812 
L 230.588659 12.118812 
L 227.924392 12.118812 
L 225.260126 12.118812 
L 222.59586 12.118812 
L 219.931593 12.118812 
L 217.267327 12.118812 
L 214.60306 12.118812 
L 211.938794 12.118812 
L 209.274527 12.118812 
L 207.920629 12.118812 
L 206.610261 14.315933 
L 206.336072 14.783078 
L 204.897046 17.447345 
L 203.945995 19.430821 
L 203.625972 20.111611 
L 202.511929 22.775878 
L 201.574194 25.440144 
L 201.281728 26.41518 
L 200.790429 28.10441 
L 200.159401 30.768677 
L 199.672539 33.432943 
L 199.310529 36.09721 
L 199.052789 38.761476 
L 198.878385 41.425743 
L 198.766794 44.090009 
L 198.69848 46.754275 
L 198.655284 49.418542 
L 198.620626 52.082808 
L 198.617462 52.273373 
L 198.57995 54.747075 
L 198.520302 57.411341 
L 198.430292 60.075608 
L 198.299915 62.739874 
L 198.12018 65.40414 
L 197.882688 68.068407 
L 197.57915 70.732673 
L 197.200836 73.39694 
L 196.737931 76.061206 
L 196.178762 78.725473 
L 195.953195 79.587907 
L 195.541063 81.389739 
L 194.808498 84.054005 
L 193.946521 86.718272 
L 193.288929 88.413407 
L 192.961809 89.382538 
L 191.873987 92.046805 
L 190.624662 94.627863 
L 190.589604 94.711071 
L 189.215383 97.375338 
L 187.960396 99.390784 
L 187.605455 100.039604 
L 185.816897 102.70387 
L 185.29613 103.339413 
L 183.800174 105.368137 
L 182.631863 106.651268 
L 181.478548 108.032403 
L 179.967597 109.492781 
L 178.789702 110.69667 
L 177.30333 111.929971 
L 175.593309 113.360936 
L 174.639064 114.020912 
L 171.974797 115.782146 
L 171.582548 116.025203 
L 169.310531 117.224305 
L 166.646265 118.362213 
L 165.653148 118.689469 
L 163.981998 119.193855 
L 161.317732 119.714185 
L 158.653465 119.910221 
L 155.989199 119.792505 
L 153.324932 119.37471 
L 150.72927 118.689469 
L 150.660666 118.674053 
L 147.9964 117.787505 
L 145.332133 116.626427 
L 144.141893 116.025203 
L 142.667867 115.221665 
L 140.0036 113.537954 
L 139.728429 113.360936 
L 137.339334 111.443268 
L 136.420266 110.69667 
L 134.675068 108.804389 
L 133.923819 108.032403 
L 132.051284 105.368137 
L 132.010801 105.28644 
L 130.548986 102.70387 
L 129.512367 100.039604 
L 129.346535 99.399676 
L 128.7347 97.375338 
L 128.237969 94.711071 
L 127.98638 92.046805 
L 127.942682 89.382538 
L 128.08215 86.718272 
L 128.385557 84.054005 
L 128.83498 81.389739 
L 129.346535 79.004661 
L 129.411725 78.725473 
L 130.104353 76.061206 
L 130.898018 73.39694 
L 131.769402 70.732673 
L 132.010801 69.992593 
L 132.727804 68.068407 
L 133.738756 65.40414 
L 134.675068 62.960001 
L 134.773419 62.739874 
L 135.871082 60.075608 
L 136.943535 57.411341 
L 137.339334 56.332131 
L 138.026459 54.747075 
L 139.073311 52.082808 
L 140.0036 49.484413 
L 140.03181 49.418542 
L 140.965945 46.754275 
L 141.757765 44.090009 
L 142.387376 41.425743 
L 142.667867 39.693406 
L 142.850643 38.761476 
L 143.108318 36.09721 
L 143.090783 33.432943 
L 142.748388 30.768677 
L 142.667867 30.449017 
L 142.075864 28.10441 
L 140.968207 25.440144 
L 140.0036 23.827796 
L 139.351814 22.775878 
L 137.339334 20.339572 
L 137.139488 20.111611 
L 134.675068 17.838058 
L 134.213351 17.447345 
L 132.010801 15.866774 
L 130.310959 14.783078 
L 129.346535 14.244168 
L 126.682268 12.894873 
L 124.920436 12.118812 
L 124.018002 12.118812 
L 121.353735 12.118812 
L 118.689469 12.118812 
L 116.025203 12.118812 
L 113.360936 12.118812 
L 110.69667 12.118812 
L 108.032403 12.118812 
L 105.368137 12.118812 
L 102.70387 12.118812 
L 100.039604 12.118812 
L 97.375338 12.118812 
L 94.711071 12.118812 
L 92.046805 12.118812 
L 89.382538 12.118812 
L 86.718272 12.118812 
L 84.054005 12.118812 
L 81.389739 12.118812 
L 78.725473 12.118812 
L 76.061206 12.118812 
L 73.39694 12.118812 
L 72.839484 12.118812 
L 70.732673 12.761065 
L 68.068407 13.665881 
L 65.40414 14.662606 
L 65.118242 14.783078 
L 62.739874 15.701031 
L 60.075608 16.82897 
L 58.753513 17.447345 
L 57.411341 18.024391 
L 54.747075 19.286628 
L 53.15735 20.111611 
L 52.082808 20.627012 
L 49.418542 22.029622 
L 48.118562 22.775878 
L 46.754275 23.505452 
L 44.090009 25.056265 
L 43.481639 25.440144 
L 41.425743 26.661317 
L 39.172427 28.10441 
L 38.761476 28.354269 
L 36.09721 30.097746 
L 35.134809 30.768677 
L 33.432943 31.91187 
L 31.297384 33.432943 
L 30.768677 33.800104 
L 28.10441 35.746902 
L 27.642842 36.09721 
L 25.440144 37.755107 
L 24.143947 38.761476 
L 22.775878 39.828888 
L 20.772658 41.425743 
L 20.111611 41.962343 
L 17.519015 44.090009 
L 17.447345 44.15067 
L 14.783078 46.399729 
L 14.35808 46.754275 
L 12.118812 48.704836 
L 12.118812 49.418542 
L 12.118812 52.082808 
L 12.118812 54.747075 
L 12.118812 57.411341 
L 12.118812 60.075608 
L 12.118812 62.739874 
L 12.118812 65.40414 
L 12.118812 68.068407 
L 12.118812 70.732673 
L 12.118812 73.39694 
L 12.118812 76.061206 
L 12.118812 78.725473 
L 12.118812 81.389739 
L 12.118812 84.054005 
L 12.118812 86.718272 
L 12.118812 89.382538 
L 12.118812 92.046805 
L 12.118812 94.711071 
L 12.118812 97.375338 
L 12.118812 100.039604 
L 12.118812 102.70387 
L 12.118812 105.368137 
L 12.118812 108.032403 
L 12.118812 110.69667 
L 12.118812 113.360936 
L 12.118812 116.025203 
L 12.118812 118.689469 
L 12.118812 121.353735 
L 12.118812 124.018002 
L 12.118812 126.682268 
L 12.118812 129.346535 
L 12.118812 132.010801 
L 12.118812 134.675068 
L 12.118812 137.339334 
L 12.118812 140.0036 
L 12.118812 142.667867 
L 12.118812 145.332133 
L 12.118812 147.9964 
L 12.118812 150.660666 
L 12.118812 153.324932 
L 12.118812 155.989199 
L 12.118812 158.653465 
L 12.118812 161.317732 
L 12.118812 163.981998 
L 12.118812 166.646265 
L 12.118812 169.310531 
L 12.118812 171.974797 
L 12.118812 174.639064 
L 12.118812 177.30333 
L 12.118812 179.967597 
L 12.118812 182.631863 
L 12.118812 185.29613 
L 12.118812 187.960396 
L 12.118812 190.624662 
L 12.118812 193.288929 
L 12.118812 195.953195 
L 12.118812 198.617462 
L 12.118812 201.281728 
L 12.118812 203.945995 
L 12.118812 206.610261 
L 12.118812 209.274527 
L 12.118812 211.938794 
L 12.118812 214.60306 
L 12.118812 217.267327 
L 12.118812 219.931593 
L 12.118812 222.59586 
L 12.118812 225.260126 
L 12.118812 227.924392 
L 12.118812 230.588659 
L 12.118812 233.252925 
L 12.118812 235.917192 
L 12.118812 238.581458 
L 12.118812 241.245725 
L 12.118812 243.909991 
L 12.118812 246.574257 
L 12.118812 249.238524 
L 12.118812 251.90279 
L 12.118812 254.567057 
L 12.118812 257.231323 
L 12.118812 259.89559 
L 12.118812 262.559856 
L 12.118812 265.224122 
L 12.118812 267.888389 
L 12.118812 270.552655 
L 12.118812 273.216922 
L 12.118812 275.881188 
z
M 224.444147 254.567057 
L 222.59586 254.125113 
L 219.931593 253.201429 
L 217.267327 251.91328 
L 217.250342 251.90279 
L 214.60306 250.307383 
L 213.263304 249.238524 
L 211.938794 248.170656 
L 210.409402 246.574257 
L 209.274527 245.302681 
L 208.288999 243.909991 
L 206.702082 241.245725 
L 206.610261 241.069452 
L 205.554076 238.581458 
L 204.766469 235.917192 
L 204.300969 233.252925 
L 204.121427 230.588659 
L 204.192343 227.924392 
L 204.481006 225.260126 
L 204.962712 222.59586 
L 205.631958 219.931593 
L 206.517538 217.267327 
L 206.610261 217.097612 
L 207.382326 214.60306 
L 208.391388 211.938794 
L 209.274527 209.651035 
L 209.416497 209.274527 
L 210.441495 206.610261 
L 211.301552 203.945995 
L 211.938794 201.426038 
L 212.004159 201.281728 
L 212.644985 198.617462 
L 213.021591 195.953195 
L 213.104571 193.288929 
L 212.794146 190.624662 
L 211.938794 188.099643 
L 211.873485 187.960396 
L 209.808693 185.29613 
L 209.274527 184.846404 
L 206.610261 183.497384 
L 203.945995 182.94376 
L 201.281728 182.820037 
L 198.617462 182.973573 
L 195.953195 183.32273 
L 193.288929 183.804628 
L 190.624662 184.354207 
L 187.960396 184.900476 
L 185.730557 185.29613 
L 185.29613 185.376844 
L 182.631863 185.742577 
L 179.967597 185.911564 
L 177.30333 185.803028 
L 174.639064 185.313722 
L 174.587395 185.29613 
L 171.974797 184.403589 
L 169.310531 182.720676 
L 169.213142 182.631863 
L 166.716187 179.967597 
L 166.646265 179.878486 
L 165.213869 177.30333 
L 164.257913 174.639064 
L 163.981998 173.535749 
L 163.678431 171.974797 
L 163.359003 169.310531 
L 163.216944 166.646265 
L 163.185967 163.981998 
L 163.210859 161.317732 
L 163.244757 158.653465 
L 163.250767 155.989199 
L 163.205833 153.324932 
L 163.10457 150.660666 
L 162.971742 147.9964 
L 162.90768 145.332133 
L 163.251933 142.667867 
L 163.981998 141.32292 
L 164.963352 140.0036 
L 166.646265 138.831339 
L 169.310531 137.454621 
L 169.589711 137.339334 
L 171.974797 136.456392 
L 174.639064 135.683957 
L 177.30333 135.109601 
L 179.967597 134.7094 
L 180.357184 134.675068 
L 182.631863 134.452801 
L 185.29613 134.35693 
L 187.960396 134.423291 
L 190.624662 134.653169 
L 190.784846 134.675068 
L 193.288929 135.038235 
L 195.953195 135.596885 
L 198.617462 136.336031 
L 201.281728 137.258064 
L 201.497858 137.339334 
L 203.945995 138.382864 
L 206.610261 139.701951 
L 207.191371 140.0036 
L 209.274527 141.260381 
L 211.460979 142.667867 
L 211.938794 143.03186 
L 214.60306 145.057229 
L 214.970781 145.332133 
L 217.267327 147.355176 
L 218.024067 147.9964 
L 219.931593 149.894528 
L 220.756388 150.660666 
L 222.59586 152.638698 
L 223.295197 153.324932 
L 225.260126 155.50033 
L 225.751396 155.989199 
L 227.924392 158.344836 
L 228.243038 158.653465 
L 230.588659 161.033421 
L 230.900538 161.317732 
L 233.252925 163.484665 
L 233.842373 163.981998 
L 235.917192 165.704326 
L 237.116189 166.646265 
L 238.581458 167.762816 
L 240.640762 169.310531 
L 241.245725 169.75074 
L 243.909991 171.74254 
L 244.209447 171.974797 
L 246.574257 173.796441 
L 247.605461 174.639064 
L 249.238524 175.984981 
L 250.730948 177.30333 
L 251.90279 178.367784 
L 253.545748 179.967597 
L 254.567057 181.01256 
L 256.054296 182.631863 
L 257.231323 184.009313 
L 258.276941 185.29613 
L 259.89559 187.486822 
L 260.233009 187.960396 
L 261.954052 190.624662 
L 262.559856 191.690566 
L 263.454626 193.288929 
L 264.743658 195.953195 
L 265.224122 197.119301 
L 265.846106 198.617462 
L 266.769889 201.281728 
L 267.506865 203.945995 
L 267.888389 205.741338 
L 268.079989 206.610261 
L 268.502986 209.274527 
L 268.760507 211.938794 
L 268.855946 214.60306 
L 268.789636 217.267327 
L 268.558602 219.931593 
L 268.156417 222.59586 
L 267.888389 223.838595 
L 267.590028 225.260126 
L 266.850386 227.924392 
L 265.903182 230.588659 
L 265.224122 232.156814 
L 264.746754 233.252925 
L 263.36289 235.917192 
L 262.559856 237.235315 
L 261.711221 238.581458 
L 259.89559 241.05199 
L 259.745115 241.245725 
L 257.40945 243.909991 
L 257.231323 244.09327 
L 254.587414 246.574257 
L 254.567057 246.591779 
L 251.90279 248.673588 
L 251.068309 249.238524 
L 249.238524 250.410206 
L 246.574257 251.832474 
L 246.418771 251.90279 
L 243.909991 253.012043 
L 241.245725 253.930197 
L 238.740077 254.567057 
L 238.581458 254.607844 
L 235.917192 255.091545 
L 233.252925 255.351919 
L 230.588659 255.39172 
L 227.924392 255.205789 
L 225.260126 254.778515 
z
M 193.879905 211.938794 
L 193.288929 210.806743 
L 192.497287 209.274527 
L 192.364786 206.610261 
L 193.288929 204.249589 
L 193.391463 203.945995 
L 195.923562 201.281728 
L 195.953195 201.261823 
L 198.617462 200.054222 
L 201.281728 199.92081 
L 203.945995 201.042154 
L 204.175711 201.281728 
L 206.329013 203.945995 
L 206.610261 204.908308 
L 206.957813 206.610261 
L 206.610261 208.347605 
L 206.478665 209.274527 
L 204.705222 211.938794 
L 203.945995 212.878824 
L 201.281728 214.187451 
L 198.617462 214.37238 
L 195.953195 213.569623 
z
M 145.239758 166.646265 
L 142.972944 163.981998 
L 142.667867 163.047868 
L 142.179214 161.317732 
L 142.333172 158.653465 
L 142.667867 157.906602 
L 143.288087 155.989199 
L 145.332133 153.504945 
L 145.50578 153.324932 
L 147.9964 151.627361 
L 150.660666 150.924994 
L 153.324932 151.187616 
L 155.989199 153.003556 
L 156.247227 153.324932 
L 157.658613 155.989199 
L 157.977973 158.653465 
L 157.50234 161.317732 
L 156.182152 163.981998 
L 155.989199 164.301107 
L 153.460334 166.646265 
L 153.324932 166.774062 
L 150.660666 167.924187 
L 147.9964 167.922213 
L 145.332133 166.723133 
z
M 107.525349 153.324932 
L 105.368137 152.47478 
L 102.70387 151.314167 
L 101.214659 150.660666 
L 100.039604 150.042798 
L 97.375338 148.747781 
L 95.647069 147.9964 
L 94.711071 147.529371 
L 92.046805 146.450872 
L 89.382538 145.604048 
L 88.271633 145.332133 
L 86.718272 144.941246 
L 84.054005 144.447005 
L 81.389739 144.076387 
L 78.725473 143.774351 
L 76.061206 143.496575 
L 73.39694 143.208057 
L 70.732673 142.881016 
L 69.291651 142.667867 
L 68.068407 142.499493 
L 65.40414 142.05203 
L 62.739874 141.514812 
L 60.075608 140.871301 
L 57.411341 140.104292 
L 57.11822 140.0036 
L 54.747075 139.242365 
L 52.082808 138.234403 
L 50.06697 137.339334 
L 49.418542 137.068253 
L 46.754275 135.765912 
L 44.844199 134.675068 
L 44.090009 134.264325 
L 41.425743 132.577994 
L 40.648425 132.010801 
L 38.761476 130.673671 
L 37.144746 129.346535 
L 36.09721 128.501558 
L 34.140899 126.682268 
L 33.432943 126.025646 
L 31.542424 124.018002 
L 30.768677 123.183189 
L 29.274632 121.353735 
L 28.10441 119.863957 
L 27.282914 118.689469 
L 25.533889 116.025203 
L 25.440144 115.875928 
L 24.016356 113.360936 
L 22.775878 110.885005 
L 22.689541 110.69667 
L 21.551279 108.032403 
L 20.585625 105.368137 
L 20.111611 103.834713 
L 19.783479 102.70387 
L 19.133758 100.039604 
L 18.638209 97.375338 
L 18.292978 94.711071 
L 18.094588 92.046805 
L 18.040633 89.382538 
L 18.13061 86.718272 
L 18.366865 84.054005 
L 18.755565 81.389739 
L 19.307536 78.725473 
L 20.038812 76.061206 
L 20.111611 75.854617 
L 20.904145 73.39694 
L 21.976849 70.732673 
L 22.775878 69.109531 
L 23.257697 68.068407 
L 24.755143 65.40414 
L 25.440144 64.375651 
L 26.508761 62.739874 
L 28.10441 60.675892 
L 28.574841 60.075608 
L 30.768677 57.65418 
L 31.000738 57.411341 
L 33.432943 55.136717 
L 33.891794 54.747075 
L 36.09721 53.008264 
L 37.445061 52.082808 
L 38.761476 51.210516 
L 41.425743 49.708558 
L 42.045215 49.418542 
L 44.090009 48.442591 
L 46.754275 47.424674 
L 49.047804 46.754275 
L 49.418542 46.638651 
L 52.082808 46.028113 
L 54.747075 45.630705 
L 57.411341 45.436719 
L 60.075608 45.442787 
L 62.739874 45.652256 
L 65.40414 46.074667 
L 68.068407 46.724752 
L 68.162939 46.754275 
L 70.732673 47.588391 
L 73.39694 48.726742 
L 74.735815 49.418542 
L 76.061206 50.159992 
L 78.725473 51.935798 
L 78.923959 52.082808 
L 81.389739 54.131033 
L 82.05814 54.747075 
L 84.054005 56.861186 
L 84.539738 57.411341 
L 86.556552 60.075608 
L 86.718272 60.327079 
L 88.238286 62.739874 
L 89.382538 64.957802 
L 89.612134 65.40414 
L 90.776025 68.068407 
L 91.720748 70.732673 
L 92.046805 71.853897 
L 92.50949 73.39694 
L 93.16045 76.061206 
L 93.68424 78.725473 
L 94.104747 81.389739 
L 94.443128 84.054005 
L 94.711071 86.646582 
L 94.718882 86.718272 
L 94.954044 89.382538 
L 95.159678 92.046805 
L 95.354889 94.711071 
L 95.559707 97.375338 
L 95.796011 100.039604 
L 96.088918 102.70387 
L 96.469034 105.368137 
L 96.97632 108.032403 
L 97.375338 109.66073 
L 97.66474 110.69667 
L 98.62837 113.360936 
L 100.039604 116.01566 
L 100.045999 116.025203 
L 102.405066 118.689469 
L 102.70387 118.94326 
L 105.368137 120.458812 
L 108.032403 121.194124 
L 109.263302 121.353735 
L 110.69667 121.5106 
L 113.360936 121.573611 
L 116.025203 121.494651 
L 118.689469 121.356476 
L 118.732322 121.353735 
L 121.353735 121.219827 
L 124.018002 121.123831 
L 126.682268 121.105552 
L 129.346535 121.198271 
L 131.00463 121.353735 
L 132.010801 121.427214 
L 134.675068 121.795915 
L 137.339334 122.354627 
L 140.0036 123.157795 
L 142.117972 124.018002 
L 142.667867 124.230616 
L 145.332133 125.599877 
L 147.086591 126.682268 
L 147.9964 127.38359 
L 150.38095 129.346535 
L 150.660666 129.699458 
L 152.765296 132.010801 
L 153.324932 133.181924 
L 154.35873 134.675068 
L 154.963933 137.339334 
L 153.904263 140.0036 
L 153.324932 140.400314 
L 150.911723 142.667867 
L 150.660666 142.786046 
L 147.9964 144.557885 
L 146.951277 145.332133 
L 145.332133 146.260668 
L 142.667867 147.854574 
L 142.387977 147.9964 
L 140.0036 149.380656 
L 137.393689 150.660666 
L 137.339334 150.696587 
L 134.675068 152.000911 
L 132.010801 153.031252 
L 130.935433 153.324932 
L 129.346535 153.948332 
L 126.682268 154.66153 
L 124.018002 155.1426 
L 121.353735 155.409452 
L 118.689469 155.463623 
L 116.025203 155.299389 
L 113.360936 154.911854 
L 110.69667 154.304022 
L 108.032403 153.492529 
z
" clip-path="url(#p5e9c256328)" style="fill: #a82e5f"/>
   </g>
   <g id="PathCollection_6">
    <path d="M 225.260126 254.778515 
L 227.924392 255.205789 
L 230.588659 255.39172 
L 233.252925 255.351919 
L 235.917192 255.091545 
L 238.581458 254.607844 
L 238.740077 254.567057 
L 241.245725 253.930197 
L 243.909991 253.012043 
L 246.418771 251.90279 
L 246.574257 251.832474 
L 249.238524 250.410206 
L 251.068309 249.238524 
L 251.90279 248.673588 
L 254.567057 246.591779 
L 254.587414 246.574257 
L 257.231323 244.09327 
L 257.40945 243.909991 
L 259.745115 241.245725 
L 259.89559 241.05199 
L 261.711221 238.581458 
L 262.559856 237.235315 
L 263.36289 235.917192 
L 264.746754 233.252925 
L 265.224122 232.156814 
L 265.903182 230.588659 
L 266.850386 227.924392 
L 267.590028 225.260126 
L 267.888389 223.838595 
L 268.156417 222.59586 
L 268.558602 219.931593 
L 268.789636 217.267327 
L 268.855946 214.60306 
L 268.760507 211.938794 
L 268.502986 209.274527 
L 268.079989 206.610261 
L 267.888389 205.741338 
L 267.506865 203.945995 
L 266.769889 201.281728 
L 265.846106 198.617462 
L 265.224122 197.119301 
L 264.743658 195.953195 
L 263.454626 193.288929 
L 262.559856 191.690566 
L 261.954052 190.624662 
L 260.233009 187.960396 
L 259.89559 187.486822 
L 258.276941 185.29613 
L 257.231323 184.009313 
L 256.054296 182.631863 
L 254.567057 181.01256 
L 253.545748 179.967597 
L 251.90279 178.367784 
L 250.730948 177.30333 
L 249.238524 175.984981 
L 247.605461 174.639064 
L 246.574257 173.796441 
L 244.209447 171.974797 
L 243.909991 171.74254 
L 241.245725 169.75074 
L 240.640762 169.310531 
L 238.581458 167.762816 
L 237.116189 166.646265 
L 235.917192 165.704326 
L 233.842373 163.981998 
L 233.252925 163.484665 
L 230.900538 161.317732 
L 230.588659 161.033421 
L 228.243038 158.653465 
L 227.924392 158.344836 
L 225.751396 155.989199 
L 225.260126 155.50033 
L 223.295197 153.324932 
L 222.59586 152.638698 
L 220.756388 150.660666 
L 219.931593 149.894528 
L 218.024067 147.9964 
L 217.267327 147.355176 
L 214.970781 145.332133 
L 214.60306 145.057229 
L 211.938794 143.03186 
L 211.460979 142.667867 
L 209.274527 141.260381 
L 207.191371 140.0036 
L 206.610261 139.701951 
L 203.945995 138.382864 
L 201.497858 137.339334 
L 201.281728 137.258064 
L 198.617462 136.336031 
L 195.953195 135.596885 
L 193.288929 135.038235 
L 190.784846 134.675068 
L 190.624662 134.653169 
L 187.960396 134.423291 
L 185.29613 134.35693 
L 182.631863 134.452801 
L 180.357184 134.675068 
L 179.967597 134.7094 
L 177.30333 135.109601 
L 174.639064 135.683957 
L 171.974797 136.456392 
L 169.589711 137.339334 
L 169.310531 137.454621 
L 166.646265 138.831339 
L 164.963352 140.0036 
L 163.981998 141.32292 
L 163.251933 142.667867 
L 162.90768 145.332133 
L 162.971742 147.9964 
L 163.10457 150.660666 
L 163.205833 153.324932 
L 163.250767 155.989199 
L 163.244757 158.653465 
L 163.210859 161.317732 
L 163.185967 163.981998 
L 163.216944 166.646265 
L 163.359003 169.310531 
L 163.678431 171.974797 
L 163.981998 173.535749 
L 164.257913 174.639064 
L 165.213869 177.30333 
L 166.646265 179.878486 
L 166.716187 179.967597 
L 169.213142 182.631863 
L 169.310531 182.720676 
L 171.974797 184.403589 
L 174.587395 185.29613 
L 174.639064 185.313722 
L 177.30333 185.803028 
L 179.967597 185.911564 
L 182.631863 185.742577 
L 185.29613 185.376844 
L 185.730557 185.29613 
L 187.960396 184.900476 
L 190.624662 184.354207 
L 193.288929 183.804628 
L 195.953195 183.32273 
L 198.617462 182.973573 
L 201.281728 182.820037 
L 203.945995 182.94376 
L 206.610261 183.497384 
L 209.274527 184.846404 
L 209.808693 185.29613 
L 211.873485 187.960396 
L 211.938794 188.099643 
L 212.794146 190.624662 
L 213.104571 193.288929 
L 213.021591 195.953195 
L 212.644985 198.617462 
L 212.004159 201.281728 
L 211.938794 201.426038 
L 211.301552 203.945995 
L 210.441495 206.610261 
L 209.416497 209.274527 
L 209.274527 209.651035 
L 208.391388 211.938794 
L 207.382326 214.60306 
L 206.610261 217.097612 
L 206.517538 217.267327 
L 205.631958 219.931593 
L 204.962712 222.59586 
L 204.481006 225.260126 
L 204.192343 227.924392 
L 204.121427 230.588659 
L 204.300969 233.252925 
L 204.766469 235.917192 
L 205.554076 238.581458 
L 206.610261 241.069452 
L 206.702082 241.245725 
L 208.288999 243.909991 
L 209.274527 245.302681 
L 210.409402 246.574257 
L 211.938794 248.170656 
L 213.263304 249.238524 
L 214.60306 250.307383 
L 217.250342 251.90279 
L 217.267327 251.91328 
L 219.931593 253.201429 
L 222.59586 254.125113 
L 224.444147 254.567057 
z
M 214.174698 219.931593 
L 211.938794 217.439436 
L 211.860259 217.267327 
L 211.070174 214.60306 
L 211.365456 211.938794 
L 211.938794 210.707036 
L 212.846563 209.274527 
L 214.60306 207.349817 
L 216.748873 206.610261 
L 217.267327 206.306372 
L 219.931593 206.240362 
L 221.047914 206.610261 
L 222.59586 207.306297 
L 224.715754 209.274527 
L 225.260126 210.567953 
L 225.882461 211.938794 
L 225.99596 214.60306 
L 225.260126 216.69581 
L 225.072666 217.267327 
L 222.695607 219.931593 
L 222.59586 220.004518 
L 219.931593 221.243874 
L 217.267327 221.380165 
L 214.60306 220.357421 
z
M 176.858809 169.310531 
L 174.639064 168.808666 
L 171.974797 167.06926 
L 171.605186 166.646265 
L 169.728369 163.981998 
L 169.310531 162.81581 
L 168.842233 161.317732 
L 168.649116 158.653465 
L 169.14397 155.989199 
L 169.310531 155.553264 
L 170.39522 153.324932 
L 171.974797 151.39745 
L 173.159002 150.660666 
L 174.639064 149.723055 
L 177.30333 149.082282 
L 179.967597 149.222584 
L 182.631863 150.130379 
L 183.541491 150.660666 
L 185.29613 152.00047 
L 186.558772 153.324932 
L 187.947773 155.989199 
L 187.960396 156.052753 
L 188.572815 158.653465 
L 188.388471 161.317732 
L 187.960396 162.473452 
L 187.441983 163.981998 
L 185.375406 166.646265 
L 185.29613 166.716525 
L 182.631863 168.542882 
L 180.093545 169.310531 
L 179.967597 169.347225 
L 177.30333 169.440446 
z
" clip-path="url(#p5e9c256328)" style="fill: #cc4248"/>
    <path d="M 108.032403 153.492529 
L 110.69667 154.304022 
L 113.360936 154.911854 
L 116.025203 155.299389 
L 118.689469 155.463623 
L 121.353735 155.409452 
L 124.018002 155.1426 
L 126.682268 154.66153 
L 129.346535 153.948332 
L 130.935433 153.324932 
L 132.010801 153.031252 
L 134.675068 152.000911 
L 137.339334 150.696587 
L 137.393689 150.660666 
L 140.0036 149.380656 
L 142.387977 147.9964 
L 142.667867 147.854574 
L 145.332133 146.260668 
L 146.951277 145.332133 
L 147.9964 144.557885 
L 150.660666 142.786046 
L 150.911723 142.667867 
L 153.324932 140.400314 
L 153.904263 140.0036 
L 154.963933 137.339334 
L 154.35873 134.675068 
L 153.324932 133.181924 
L 152.765296 132.010801 
L 150.660666 129.699458 
L 150.38095 129.346535 
L 147.9964 127.38359 
L 147.086591 126.682268 
L 145.332133 125.599877 
L 142.667867 124.230616 
L 142.117972 124.018002 
L 140.0036 123.157795 
L 137.339334 122.354627 
L 134.675068 121.795915 
L 132.010801 121.427214 
L 131.00463 121.353735 
L 129.346535 121.198271 
L 126.682268 121.105552 
L 124.018002 121.123831 
L 121.353735 121.219827 
L 118.732322 121.353735 
L 118.689469 121.356476 
L 116.025203 121.494651 
L 113.360936 121.573611 
L 110.69667 121.5106 
L 109.263302 121.353735 
L 108.032403 121.194124 
L 105.368137 120.458812 
L 102.70387 118.94326 
L 102.405066 118.689469 
L 100.045999 116.025203 
L 100.039604 116.01566 
L 98.62837 113.360936 
L 97.66474 110.69667 
L 97.375338 109.66073 
L 96.97632 108.032403 
L 96.469034 105.368137 
L 96.088918 102.70387 
L 95.796011 100.039604 
L 95.559707 97.375338 
L 95.354889 94.711071 
L 95.159678 92.046805 
L 94.954044 89.382538 
L 94.718882 86.718272 
L 94.711071 86.646582 
L 94.443128 84.054005 
L 94.104747 81.389739 
L 93.68424 78.725473 
L 93.16045 76.061206 
L 92.50949 73.39694 
L 92.046805 71.853897 
L 91.720748 70.732673 
L 90.776025 68.068407 
L 89.612134 65.40414 
L 89.382538 64.957802 
L 88.238286 62.739874 
L 86.718272 60.327079 
L 86.556552 60.075608 
L 84.539738 57.411341 
L 84.054005 56.861186 
L 82.05814 54.747075 
L 81.389739 54.131033 
L 78.923959 52.082808 
L 78.725473 51.935798 
L 76.061206 50.159992 
L 74.735815 49.418542 
L 73.39694 48.726742 
L 70.732673 47.588391 
L 68.162939 46.754275 
L 68.068407 46.724752 
L 65.40414 46.074667 
L 62.739874 45.652256 
L 60.075608 45.442787 
L 57.411341 45.436719 
L 54.747075 45.630705 
L 52.082808 46.028113 
L 49.418542 46.638651 
L 49.047804 46.754275 
L 46.754275 47.424674 
L 44.090009 48.442591 
L 42.045215 49.418542 
L 41.425743 49.708558 
L 38.761476 51.210516 
L 37.445061 52.082808 
L 36.09721 53.008264 
L 33.891794 54.747075 
L 33.432943 55.136717 
L 31.000738 57.411341 
L 30.768677 57.65418 
L 28.574841 60.075608 
L 28.10441 60.675892 
L 26.508761 62.739874 
L 25.440144 64.375651 
L 24.755143 65.40414 
L 23.257697 68.068407 
L 22.775878 69.109531 
L 21.976849 70.732673 
L 20.904145 73.39694 
L 20.111611 75.854617 
L 20.038812 76.061206 
L 19.307536 78.725473 
L 18.755565 81.389739 
L 18.366865 84.054005 
L 18.13061 86.718272 
L 18.040633 89.382538 
L 18.094588 92.046805 
L 18.292978 94.711071 
L 18.638209 97.375338 
L 19.133758 100.039604 
L 19.783479 102.70387 
L 20.111611 103.834713 
L 20.585625 105.368137 
L 21.551279 108.032403 
L 22.689541 110.69667 
L 22.775878 110.885005 
L 24.016356 113.360936 
L 25.440144 115.875928 
L 25.533889 116.025203 
L 27.282914 118.689469 
L 28.10441 119.863957 
L 29.274632 121.353735 
L 30.768677 123.183189 
L 31.542424 124.018002 
L 33.432943 126.025646 
L 34.140899 126.682268 
L 36.09721 128.501558 
L 37.144746 129.346535 
L 38.761476 130.673671 
L 40.648425 132.010801 
L 41.425743 132.577994 
L 44.090009 134.264325 
L 44.844199 134.675068 
L 46.754275 135.765912 
L 49.418542 137.068253 
L 50.06697 137.339334 
L 52.082808 138.234403 
L 54.747075 139.242365 
L 57.11822 140.0036 
L 57.411341 140.104292 
L 60.075608 140.871301 
L 62.739874 141.514812 
L 65.40414 142.05203 
L 68.068407 142.499493 
L 69.291651 142.667867 
L 70.732673 142.881016 
L 73.39694 143.208057 
L 76.061206 143.496575 
L 78.725473 143.774351 
L 81.389739 144.076387 
L 84.054005 144.447005 
L 86.718272 144.941246 
L 88.271633 145.332133 
L 89.382538 145.604048 
L 92.046805 146.450872 
L 94.711071 147.529371 
L 95.647069 147.9964 
L 97.375338 148.747781 
L 100.039604 150.042798 
L 101.214659 150.660666 
L 102.70387 151.314167 
L 105.368137 152.47478 
L 107.525349 153.324932 
z
M 133.700097 142.667867 
L 132.010801 141.64411 
L 130.42845 140.0036 
L 129.535727 137.339334 
L 129.728006 134.675068 
L 131.241746 132.010801 
L 132.010801 131.34501 
L 134.675068 129.824417 
L 137.339334 129.465316 
L 140.0036 129.936607 
L 142.667867 131.703722 
L 142.980668 132.010801 
L 144.5646 134.675068 
L 144.706031 137.339334 
L 143.538251 140.0036 
L 142.667867 140.932585 
L 140.076234 142.667867 
L 140.0036 142.710065 
L 137.339334 143.401346 
L 134.675068 143.083977 
z
M 45.985964 92.046805 
L 44.090009 90.9708 
L 42.224082 89.382538 
L 41.425743 88.617845 
L 39.91475 86.718272 
L 38.761476 84.765646 
L 38.397691 84.054005 
L 37.422422 81.389739 
L 36.930156 78.725473 
L 36.861826 76.061206 
L 37.207121 73.39694 
L 38.023921 70.732673 
L 38.761476 69.273434 
L 39.360268 68.068407 
L 41.405464 65.40414 
L 41.425743 65.383064 
L 44.090009 63.059084 
L 44.607658 62.739874 
L 46.754275 61.511709 
L 49.418542 60.58285 
L 52.082808 60.157627 
L 54.747075 60.151909 
L 57.411341 60.571302 
L 60.075608 61.499533 
L 62.270795 62.739874 
L 62.739874 63.047342 
L 65.40414 65.39732 
L 65.410796 65.40414 
L 67.421493 68.068407 
L 68.068407 69.418566 
L 68.717047 70.732673 
L 69.512036 73.39694 
L 69.846461 76.061206 
L 69.776734 78.725473 
L 69.295048 81.389739 
L 68.343306 84.054005 
L 68.068407 84.599932 
L 66.877629 86.718272 
L 65.40414 88.598764 
L 64.628945 89.382538 
L 62.739874 90.998041 
L 60.940482 92.046805 
L 60.075608 92.528551 
L 57.411341 93.488909 
L 54.747075 93.925497 
L 52.082808 93.914989 
L 49.418542 93.459839 
L 46.754275 92.484835 
z
" clip-path="url(#p5e9c256328)" style="fill: #cc4248"/>
   </g>
   <g id="PathCollection_7">
    <path d="M 214.60306 220.357421 
L 217.267327 221.380165 
L 219.931593 221.243874 
L 222.59586 220.004518 
L 222.695607 219.931593 
L 225.072666 217.267327 
L 225.260126 216.69581 
L 225.99596 214.60306 
L 225.882461 211.938794 
L 225.260126 210.567953 
L 224.715754 209.274527 
L 222.59586 207.306297 
L 221.047914 206.610261 
L 219.931593 206.240362 
L 217.267327 206.306372 
L 216.748873 206.610261 
L 214.60306 207.349817 
L 212.846563 209.274527 
L 211.938794 210.707036 
L 211.365456 211.938794 
L 211.070174 214.60306 
L 211.860259 217.267327 
L 211.938794 217.439436 
L 214.174698 219.931593 
z
M 213.712643 214.60306 
L 213.418079 211.938794 
L 214.60306 210.500212 
L 217.267327 210.184711 
L 219.228228 211.938794 
L 218.945927 214.60306 
L 217.267327 216.047396 
L 214.60306 215.727964 
z
" clip-path="url(#p5e9c256328)" style="fill: #ea632a"/>
    <path d="M 177.30333 169.440446 
L 179.967597 169.347225 
L 180.093545 169.310531 
L 182.631863 168.542882 
L 185.29613 166.716525 
L 185.375406 166.646265 
L 187.441983 163.981998 
L 187.960396 162.473452 
L 188.388471 161.317732 
L 188.572815 158.653465 
L 187.960396 156.052753 
L 187.947773 155.989199 
L 186.558772 153.324932 
L 185.29613 152.00047 
L 183.541491 150.660666 
L 182.631863 150.130379 
L 179.967597 149.222584 
L 177.30333 149.082282 
L 174.639064 149.723055 
L 173.159002 150.660666 
L 171.974797 151.39745 
L 170.39522 153.324932 
L 169.310531 155.553264 
L 169.14397 155.989199 
L 168.649116 158.653465 
L 168.842233 161.317732 
L 169.310531 162.81581 
L 169.728369 163.981998 
L 171.605186 166.646265 
L 171.974797 167.06926 
L 174.639064 168.808666 
L 176.858809 169.310531 
z
M 172.862839 161.317732 
L 172.316181 158.653465 
L 173.895231 155.989199 
L 174.639064 155.310431 
L 177.30333 154.758289 
L 179.513162 155.989199 
L 179.967597 156.511198 
L 181.178527 158.653465 
L 180.596943 161.317732 
L 179.967597 162.055217 
L 177.30333 163.648592 
L 174.639064 163.193184 
z
" clip-path="url(#p5e9c256328)" style="fill: #ea632a"/>
    <path d="M 134.675068 143.083977 
L 137.339334 143.401346 
L 140.0036 142.710065 
L 140.076234 142.667867 
L 142.667867 140.932585 
L 143.538251 140.0036 
L 144.706031 137.339334 
L 144.5646 134.675068 
L 142.980668 132.010801 
L 142.667867 131.703722 
L 140.0036 129.936607 
L 137.339334 129.465316 
L 134.675068 129.824417 
L 132.010801 131.34501 
L 131.241746 132.010801 
L 129.728006 134.675068 
L 129.535727 137.339334 
L 130.42845 140.0036 
L 132.010801 141.64411 
L 133.700097 142.667867 
z
M 134.750065 137.339334 
L 135.135181 134.675068 
L 137.339334 133.02995 
L 140.0036 133.951697 
L 140.68281 134.675068 
L 141.181065 137.339334 
L 140.0036 138.799131 
L 137.339334 139.687985 
z
" clip-path="url(#p5e9c256328)" style="fill: #ea632a"/>
    <path d="M 46.754275 92.484835 
L 49.418542 93.459839 
L 52.082808 93.914989 
L 54.747075 93.925497 
L 57.411341 93.488909 
L 60.075608 92.528551 
L 60.940482 92.046805 
L 62.739874 90.998041 
L 64.628945 89.382538 
L 65.40414 88.598764 
L 66.877629 86.718272 
L 68.068407 84.599932 
L 68.343306 84.054005 
L 69.295048 81.389739 
L 69.776734 78.725473 
L 69.846461 76.061206 
L 69.512036 73.39694 
L 68.717047 70.732673 
L 68.068407 69.418566 
L 67.421493 68.068407 
L 65.410796 65.40414 
L 65.40414 65.39732 
L 62.739874 63.047342 
L 62.270795 62.739874 
L 60.075608 61.499533 
L 57.411341 60.571302 
L 54.747075 60.151909 
L 52.082808 60.157627 
L 49.418542 60.58285 
L 46.754275 61.511709 
L 44.607658 62.739874 
L 44.090009 63.059084 
L 41.425743 65.383064 
L 41.405464 65.40414 
L 39.360268 68.068407 
L 38.761476 69.273434 
L 38.023921 70.732673 
L 37.207121 73.39694 
L 36.861826 76.061206 
L 36.930156 78.725473 
L 37.422422 81.389739 
L 38.397691 84.054005 
L 38.761476 84.765646 
L 39.91475 86.718272 
L 41.425743 88.617845 
L 42.224082 89.382538 
L 44.090009 90.9708 
L 45.985964 92.046805 
z
M 48.99404 81.389739 
L 46.754275 79.514939 
L 46.176255 78.725473 
L 45.156651 76.061206 
L 45.238065 73.39694 
L 46.506175 70.732673 
L 46.754275 70.437832 
L 49.418542 68.278918 
L 50.278267 68.068407 
L 52.082808 67.564957 
L 54.747075 67.953444 
L 54.980678 68.068407 
L 57.411341 69.510814 
L 58.560148 70.732673 
L 59.724876 73.39694 
L 59.798006 76.061206 
L 58.859839 78.725473 
L 57.411341 80.451121 
L 55.953067 81.389739 
L 54.747075 82.049028 
L 52.082808 82.427547 
L 49.418542 81.675624 
z
" clip-path="url(#p5e9c256328)" style="fill: #ea632a"/>
   </g>
   <g id="PathCollection_8">
    <path d="M 214.60306 215.727964 
L 217.267327 216.047396 
L 218.945927 214.60306 
L 219.228228 211.938794 
L 217.267327 210.184711 
L 214.60306 210.500212 
L 213.418079 211.938794 
L 213.712643 214.60306 
z
" clip-path="url(#p5e9c256328)" style="fill: #f98e09"/>
    <path d="M 174.639064 163.193184 
L 177.30333 163.648592 
L 179.967597 162.055217 
L 180.596943 161.317732 
L 181.178527 158.653465 
L 179.967597 156.511198 
L 179.513162 155.989199 
L 177.30333 154.758289 
L 174.639064 155.310431 
L 173.895231 155.989199 
L 172.316181 158.653465 
L 172.862839 161.317732 
z
M 174.454225 158.653465 
L 174.639064 158.404067 
L 177.30333 157.368486 
L 178.540832 158.653465 
L 177.30333 160.659723 
L 174.639064 159.085726 
z
" clip-path="url(#p5e9c256328)" style="fill: #f98e09"/>
    <path d="M 137.339334 139.687985 
L 140.0036 138.799131 
L 141.181065 137.339334 
L 140.68281 134.675068 
L 140.0036 133.951697 
L 137.339334 133.02995 
L 135.135181 134.675068 
L 134.750065 137.339334 
z
M 136.793621 137.339334 
L 137.339334 136.134537 
L 138.206223 137.339334 
L 137.339334 137.834334 
z
" clip-path="url(#p5e9c256328)" style="fill: #f98e09"/>
    <path d="M 49.418542 81.675624 
L 52.082808 82.427547 
L 54.747075 82.049028 
L 55.953067 81.389739 
L 57.411341 80.451121 
L 58.859839 78.725473 
L 59.798006 76.061206 
L 59.724876 73.39694 
L 58.560148 70.732673 
L 57.411341 69.510814 
L 54.980678 68.068407 
L 54.747075 67.953444 
L 52.082808 67.564957 
L 50.278267 68.068407 
L 49.418542 68.278918 
L 46.754275 70.437832 
L 46.506175 70.732673 
L 45.238065 73.39694 
L 45.156651 76.061206 
L 46.176255 78.725473 
L 46.754275 79.514939 
L 48.99404 81.389739 
z
M 49.391226 76.061206 
L 49.226807 73.39694 
L 49.418542 73.136449 
L 52.082808 71.101097 
L 54.747075 72.411667 
L 55.551764 73.39694 
L 55.373917 76.061206 
L 54.747075 76.819205 
L 52.082808 78.117977 
L 49.418542 76.098395 
z
" clip-path="url(#p5e9c256328)" style="fill: #f98e09"/>
   </g>
   <g id="PathCollection_9">
    <path d="M 174.639064 159.085726 
L 177.30333 160.659723 
L 178.540832 158.653465 
L 177.30333 157.368486 
L 174.639064 158.404067 
L 174.454225 158.653465 
z
" clip-path="url(#p5e9c256328)" style="fill: #fbbe23"/>
    <path d="M 137.339334 137.834334 
L 138.206223 137.339334 
L 137.339334 136.134537 
L 136.793621 137.339334 
z
" clip-path="url(#p5e9c256328)" style="fill: #fbbe23"/>
    <path d="M 49.418542 76.098395 
L 52.082808 78.117977 
L 54.747075 76.819205 
L 55.373917 76.061206 
L 55.551764 73.39694 
L 54.747075 72.411667 
L 52.082808 71.101097 
L 49.418542 73.136449 
L 49.226807 73.39694 
L 49.391226 76.061206 
z
M 51.380429 73.39694 
L 52.082808 72.816919 
L 52.908355 73.39694 
L 52.082808 75.589948 
z
" clip-path="url(#p5e9c256328)" style="fill: #fbbe23"/>
   </g>
   <g id="PathCollection_10">
    <path d="M 52.082808 75.589948 
L 52.908355 73.39694 
L 52.082808 72.816919 
L 51.380429 73.39694 
z
" clip-path="url(#p5e9c256328)" style="fill: #f1ef75"/>
   </g>
   <g id="patch_2">
    <path d="M 12.118812 275.881188 
L 275.881188 275.881188 
L 275.881188 12.118812 
L 12.118812 12.118812 
z
" clip-path="url(#p5e9c256328)" style="opacity: 0.05"/>
   </g>
   <g id="patch_3">
    <path d="M 12.118812 275.881188 
L 275.881188 275.881188 
L 275.881188 12.118812 
L 12.118812 12.118812 
L 12.118812 275.881188 
z
" clip-path="url(#p5e9c256328)" style="fill: none; stroke: #000000; stroke-width: 3; stroke-linejoin: miter"/>
   </g>
   <g id="patch_4">
    <path d="M 12.118812 275.881188 
L 144 275.881188 
L 144 144 
L 12.118812 144 
z
" clip-path="url(#p5e9c256328)" style="opacity: 0.05"/>
   </g>
   <g id="patch_5">
    <path d="M 12.118812 275.881188 
L 144 275.881188 
L 144 144 
L 12.118812 144 
L 12.118812 275.881188 
z
" clip-path="url(#p5e9c256328)" style="fill: none; stroke: #000000; stroke-width: 3; stroke-linejoin: miter"/>
   </g>
   <g id="patch_6">
    <path d="M 144 275.881188 
L 275.881188 275.881188 
L 275.881188 144 
L 144 144 
z
" clip-path="url(#p5e9c256328)" style="opacity: 0.05"/>
   </g>
   <g id="patch_7">
    <path d="M 144 275.881188 
L 275.881188 275.881188 
L 275.881188 144 
L 144 144 
L 144 275.881188 
z
" clip-path="url(#p5e9c256328)" style="fill: none; stroke: #000000; stroke-width: 3; stroke-linejoin: miter"/>
   </g>
   <g id="patch_8">
    <path d="M 144 275.881188 
L 209.940594 275.881188 
L 209.940594 209.940594 
L 144 209.940594 
z
" clip-path="url(#p5e9c256328)" style="opacity: 0.05"/>
   </g>
   <g id="patch_9">
    <path d="M 144 275.881188 
L 209.940594 275.881188 
L 209.940594 209.940594 
L 144 209.940594 
L 144 275.881188 
z
" clip-path="url(#p5e9c256328)" style="fill: none; stroke: #000000; stroke-width: 3; stroke-linejoin: miter"/>
   </g>
   <g id="patch_10">
    <path d="M 209.940594 275.881188 
L 275.881188 275.881188 
L 275.881188 209.940594 
L 209.940594 209.940594 
z
" clip-path="url(#p5e9c256328)" style="opacity: 0.05"/>
   </g>
   <g id="patch_11">
    <path d="M 209.940594 275.881188 
L 275.881188 275.881188 
L 275.881188 209.940594 
L 209.940594 209.940594 
L 209.940594 275.881188 
z
" clip-path="url(#p5e9c256328)" style="fill: none; stroke: #000000; stroke-width: 3; stroke-linejoin: miter"/>
   </g>
   <g id="patch_12">
    <path d="M 209.940594 209.940594 
L 275.881188 209.940594 
L 275.881188 144 
L 209.940594 144 
z
" clip-path="url(#p5e9c256328)" style="opacity: 0.05"/>
   </g>
   <g id="patch_13">
    <path d="M 209.940594 209.940594 
L 275.881188 209.940594 
L 275.881188 144 
L 209.940594 144 
L 209.940594 209.940594 
z
" clip-path="url(#p5e9c256328)" style="fill: none; stroke: #000000; stroke-width: 3; stroke-linejoin: miter"/>
   </g>
   <g id="patch_14">
    <path d="M 144 209.940594 
L 209.940594 209.940594 
L 209.940594 144 
L 144 144 
z
" clip-path="url(#p5e9c256328)" style="opacity: 0.05"/>
   </g>
   <g id="patch_15">
    <path d="M 144 209.940594 
L 209.940594 209.940594 
L 209.940594 144 
L 144 144 
L 144 209.940594 
z
" clip-path="url(#p5e9c256328)" style="fill: none; stroke: #000000; stroke-width: 3; stroke-linejoin: miter"/>
   </g>
   <g id="patch_16">
    <path d="M 144 144 
L 275.881188 144 
L 275.881188 12.118812 
L 144 12.118812 
z
" clip-path="url(#p5e9c256328)" style="opacity: 0.05"/>
   </g>
   <g id="patch_17">
    <path d="M 144 144 
L 275.881188 144 
L 275.881188 12.118812 
L 144 12.118812 
L 144 144 
z
" clip-path="url(#p5e9c256328)" style="fill: none; stroke: #000000; stroke-width: 3; stroke-linejoin: miter"/>
   </g>
   <g id="patch_18">
    <path d="M 12.118812 144 
L 144 144 
L 144 12.118812 
L 12.118812 12.118812 
z
" clip-path="url(#p5e9c256328)" style="opacity: 0.05"/>
   </g>
   <g id="patch_19">
    <path d="M 12.118812 144 
L 144 144 
L 144 12.118812 
L 12.118812 12.118812 
L 12.118812 144 
z
" clip-path="url(#p5e9c256328)" style="fill: none; stroke: #000000; stroke-width: 3; stroke-linejoin: miter"/>
   </g>
   <g id="patch_20">
    <path d="M 12.118812 144 
L 78.059406 144 
L 78.059406 78.059406 
L 12.118812 78.059406 
z
" clip-path="url(#p5e9c256328)" style="opacity: 0.05"/>
   </g>
   <g id="patch_21">
    <path d="M 12.118812 144 
L 78.059406 144 
L 78.059406 78.059406 
L 12.118812 78.059406 
L 12.118812 144 
z
" clip-path="url(#p5e9c256328)" style="fill: none; stroke: #000000; stroke-width: 3; stroke-linejoin: miter"/>
   </g>
   <g id="patch_22">
    <path d="M 78.059406 144 
L 144 144 
L 144 78.059406 
L 78.059406 78.059406 
z
" clip-path="url(#p5e9c256328)" style="opacity: 0.05"/>
   </g>
   <g id="patch_23">
    <path d="M 78.059406 144 
L 144 144 
L 144 78.059406 
L 78.059406 78.059406 
L 78.059406 144 
z
" clip-path="url(#p5e9c256328)" style="fill: none; stroke: #000000; stroke-width: 3; stroke-linejoin: miter"/>
   </g>
   <g id="patch_24">
    <path d="M 78.059406 78.059406 
L 144 78.059406 
L 144 12.118812 
L 78.059406 12.118812 
z
" clip-path="url(#p5e9c256328)" style="opacity: 0.05"/>
   </g>
   <g id="patch_25">
    <path d="M 78.059406 78.059406 
L 144 78.059406 
L 144 12.118812 
L 78.059406 12.118812 
L 78.059406 78.059406 
z
" clip-path="url(#p5e9c256328)" style="fill: none; stroke: #000000; stroke-width: 3; stroke-linejoin: miter"/>
   </g>
   <g id="patch_26">
    <path d="M 12.118812 78.059406 
L 78.059406 78.059406 
L 78.059406 12.118812 
L 12.118812 12.118812 
z
" clip-path="url(#p5e9c256328)" style="opacity: 0.05"/>
   </g>
   <g id="patch_27">
    <path d="M 12.118812 78.059406 
L 78.059406 78.059406 
L 78.059406 12.118812 
L 12.118812 12.118812 
L 12.118812 78.059406 
z
" clip-path="url(#p5e9c256328)" style="fill: none; stroke: #000000; stroke-width: 3; stroke-linejoin: miter"/>
   </g>
  </g>
 </g>
 <defs>
  <clipPath id="p5e9c256328">
   <rect x="10.8" y="10.8" width="266.4" height="266.4"/>
  </clipPath>
 </defs>
</svg>
